<svg xmlns="http://www.w3.org/2000/svg" xmlns:xlink="http://www.w3.org/1999/xlink" viewBox="0 0 1417.234 1000"><defs><linearGradient id="c" x1="531.122" x2="510.062" y1="490.424" y2="539.757" gradientUnits="userSpaceOnUse"><stop offset="0" stop-color="#eb8e32"/><stop offset=".2" stop-color="#eb8e32"/><stop offset="1" stop-color="#fabc74"/></linearGradient><linearGradient id="a" x1="499.823" x2="537.699" y1="426.265" y2="527.97" gradientUnits="userSpaceOnUse"><stop offset="0" stop-color="#f8b576"/><stop offset="1" stop-color="#fdce84"/></linearGradient><linearGradient id="d" x1="571.351" x2="429.26" y1="398.468" y2="408.14" gradientUnits="userSpaceOnUse"><stop offset="0" stop-color="#a44707"/><stop offset="1" stop-color="#af5407"/></linearGradient><linearGradient id="e" x1="860.135" x2="763.608" y1="350.992" y2="173.749" gradientUnits="userSpaceOnUse"><stop offset="0" stop-color="#f3aa09"/><stop offset=".52" stop-color="#f3a019"/><stop offset=".89" stop-color="#fbb929"/><stop offset="1" stop-color="#fbb929"/></linearGradient><linearGradient id="f" x1="836.172" x2="853.896" y1="357.947" y2="428.596" gradientUnits="userSpaceOnUse"><stop offset="0" stop-color="#f5a159"/><stop offset=".297" stop-color="#f8b26a"/><stop offset=".619" stop-color="#f9bd74"/><stop offset="1" stop-color="#fac077"/></linearGradient><linearGradient id="g" x1="823.773" x2="797.324" y1="431.41" y2="280.621" xlink:href="#a"/><linearGradient id="b" x1="812.871" x2="809.022" y1="273.094" y2="288.863" gradientUnits="userSpaceOnUse"><stop offset="0" stop-color="#00417e"/><stop offset=".26" stop-color="#00417e"/><stop offset=".88" stop-color="#5aadb7"/><stop offset="1" stop-color="#5aadb7"/></linearGradient><linearGradient id="h" x1="753.454" x2="749.371" y1="285.174" y2="299.946" xlink:href="#b"/><linearGradient id="i" x1="656.333" x2="693.166" y1="587.148" y2="637.651" gradientUnits="userSpaceOnUse"><stop offset="0" stop-color="#e5e3e3"/><stop offset="1" stop-color="#ececec"/></linearGradient></defs><g data-name="8"><path fill="#f3f6fc" fill-rule="evenodd" d="M1032.567 236.574C822.09 160.708 497.115 255.561 306.72 448.432c-117.584 119.11-156.306 247.734-119.182 346.573h798.47a726.471 726.471 0 0 0 82.918-71.842c190.4-192.87 174.123-410.725-36.358-486.589Z"/><path fill="#e9ecf2" fill-rule="evenodd" d="M695.66 545.09a17.443 17.443 0 0 1-3.011-.267l-59.567-10.503a3.16 3.16 0 0 1-.342-.08 7.862 7.862 0 0 1-4.584-3.152l-.005-.004-19.325-27.603-.015-.02-.018-.026-.388-.556-.006-.007a8 8 0 0 1-1.359-5.618c.007-.065.017-.133.027-.2l16.662-94.486c.751-4.257 2.531-7.412 5.292-9.375 2.805-1.994 6.407-2.62 10.719-1.861l81.04 14.289a11.04 11.04 0 0 1 7.541 5.045 12.614 12.614 0 0 1 1.614 8.933L727 436.243a3.091 3.091 0 1 1-6.09-1.074l2.935-16.644a6.46 6.46 0 0 0-.763-4.575 4.866 4.866 0 0 0-3.38-2.237l-81.036-14.29c-2.616-.46-4.658-.188-6.06.808-1.39.99-2.328 2.81-2.787 5.41l-16.454 93.31 14.168 2.5h.001a13.079 13.079 0 0 1 8.016 5.13 12.14 12.14 0 0 1 2.446 9.266v.002l-2.575 14.604 58.3 10.279c5.18.912 9.248-1.807 10.123-6.766l4.01-22.739a3.091 3.091 0 1 1 6.09 1.073l-4.011 22.739a14.124 14.124 0 0 1-14.274 12.051Zm-72.167-31.442 6.6 9.423 1.814-10.292.001-.008a5.97 5.97 0 0 0-1.309-4.486 6.93 6.93 0 0 0-4.135-2.742l-.004-.001-9.86-1.74 6.893 9.846Zm40.433-14.468h.001l20.662-.013a3.08 3.08 0 0 0 1.493-.386l66.149-36.596c.53 3.596-1.815 6.605-2.63 7.526l-40.139 21.696a3.093 3.093 0 0 0 2.943 5.44l40.515-21.9a3.13 3.13 0 0 0 .428-.266 3.098 3.098 0 0 0 .385-.336c2.67-2.649 6.387-8.859 4.007-15.56a3.091 3.091 0 0 0 .181-3.28l-.461-.83 2.405-1.334.009-.004a9.38 9.38 0 0 0 3.64-12.733c-.02-.036-.042-.07-.061-.105-.023-.044-.044-.088-.069-.13a9.367 9.367 0 0 0-12.734-3.651v.001l-2.389 1.324-.01-.02a3.088 3.088 0 0 0-4.203-1.209l-70.631 39.072a3.09 3.09 0 0 0-1.123 1.061l-10.987 17.496a3.093 3.093 0 0 0 2.619 4.737Zm11.584-15.725-5.99 9.538 10.554-.008-4.564-9.53Zm4.792-4.312 5.97 12.466 49.12-27.174-6.679-12.071-48.411 26.78Zm53.822-29.773 10.212-5.649 6.676 12.07-10.21 5.65-6.678-12.07Zm17.132-5.915 2.386-1.324.008-.005a3.185 3.185 0 0 1 4.326 1.24l.118.22a.06.06 0 0 1 .011.018 3.188 3.188 0 0 1-1.238 4.329l-.006.003-2.39 1.326-3.215-5.807Zm-91.103 20.553a3.093 3.093 0 0 0 .532-6.138l-19.562-3.449a3.092 3.092 0 1 0-1.073 6.091l19.562 3.45a3.108 3.108 0 0 0 .54.046Zm17.368-16.675a3.092 3.092 0 0 0 .532-6.138l-33.554-5.916a3.093 3.093 0 1 0-1.074 6.092l33.555 5.916a3.23 3.23 0 0 0 .541.046Zm16.162-15.749a3.093 3.093 0 0 0 .535-6.137l-47.145-8.313a3.093 3.093 0 0 0-1.073 6.092l47.143 8.311a3.127 3.127 0 0 0 .54.047ZM379.738 445.447a9.339 9.339 0 0 1-9.327-9.285h-1.25a3.093 3.093 0 0 1-3.092-3.092v-9.948a8.097 8.097 0 0 1-4.053-7.01v-8.22a4.568 4.568 0 0 0-1.468-3.242 27.44 27.44 0 0 1-8.217-21.559 27.74 27.74 0 0 1 26.27-25.516 27.45 27.45 0 0 1 20.329 47.075 4.563 4.563 0 0 0-1.47 3.243v8.22a8.101 8.101 0 0 1-8.091 8.091h-17.115v5.773h18.06a3.092 3.092 0 0 1 0 6.185h-1.248a9.34 9.34 0 0 1-9.328 9.286Zm-3.142-9.285a3.143 3.143 0 0 0 6.286 0Zm-6.489-18.142h19.262a1.908 1.908 0 0 0 1.905-1.907v-8.226a10.694 10.694 0 0 1 3.336-7.663 21.273 21.273 0 0 0-15.758-36.47 21.488 21.488 0 0 0-20.352 19.762 21.266 21.266 0 0 0 6.367 16.708 10.698 10.698 0 0 1 3.334 7.663v8.226a1.908 1.908 0 0 0 1.906 1.906Zm41.192 1.878a3.092 3.092 0 0 0 2.187-5.277l-4.177-4.18a3.092 3.092 0 0 0-4.375 4.37l4.177 4.18a3.082 3.082 0 0 0 2.188.907Zm-63.123 0a3.081 3.081 0 0 0 2.186-.906l4.18-4.18a3.092 3.092 0 0 0-4.374-4.372l-4.18 4.18a3.092 3.092 0 0 0 2.188 5.278Zm76.197-31.563h-5.908a3.092 3.092 0 1 1 0-6.184h5.908a3.092 3.092 0 1 1 0 6.184Zm-83.36 0h-5.91a3.092 3.092 0 1 1 0-6.184h5.91a3.092 3.092 0 1 1 0 6.184Zm26.492-1.192a3.094 3.094 0 0 0 3.07-2.761c.385-3.563 2.287-7.989 9.16-8.84a3.093 3.093 0 0 0-.76-6.139c-8.251 1.022-13.69 6.373-14.548 14.315a3.092 3.092 0 0 0 2.742 3.406 2.976 2.976 0 0 0 .336.019Zm39.617-26.191a3.081 3.081 0 0 0 2.187-.906l4.177-4.177a3.092 3.092 0 1 0-4.373-4.373l-4.177 4.177a3.092 3.092 0 0 0 2.186 5.279Zm-54.767 0a3.092 3.092 0 0 0 2.185-5.28l-4.18-4.176a3.092 3.092 0 0 0-4.37 4.374l4.18 4.177a3.084 3.084 0 0 0 2.185.905Zm27.383-11.342a3.093 3.093 0 0 1-3.092-3.092v-5.91a3.092 3.092 0 0 1 6.185 0v5.91a3.093 3.093 0 0 1-3.093 3.092ZM404.59 651.049c-7.79 0-16.169-2.157-24.98-4.428-7.598-1.957-15.454-3.98-22.884-4.499-11.261-.801-22.566.478-36.634 4.12-.066.02-.134.033-.201.048a3.189 3.189 0 0 1-.94.032 3.02 3.02 0 0 1-.774-.197h-.005a3.398 3.398 0 0 1-.386-.187 3.078 3.078 0 0 1-1.446-1.842 2.896 2.896 0 0 1-.072-.321 3.018 3.018 0 0 1-.026-.88 3.091 3.091 0 0 1 .214-.822 2.68 2.68 0 0 1 .123-.264l5.854-11.24a63.55 63.55 0 0 0-31.9 4.08 2.983 2.983 0 0 1-.528.229 3.092 3.092 0 0 1-3.331-5.054l31.77-58.86a6.492 6.492 0 0 1 3.06-2.855v-11.01a3.283 3.283 0 0 1-.003-.13v-21.56a3.092 3.092 0 0 1 4.282-2.853l24.85 10.364a3.091 3.091 0 0 1 .08 5.673l-23.024 10.373v9.58a6.485 6.485 0 0 1 2.224 2.376l.008.012 12.045 22.127 32.156-61.734.018-.032a9.145 9.145 0 0 1 5.537-4.49v-12.88l-.002-.093v-26.59a3.091 3.091 0 0 1 4.282-2.854l30.651 12.784a3.092 3.092 0 0 1 .08 5.673l-28.826 12.985v11.331a9.251 9.251 0 0 1 4.546 4.102l.004.005a72857.53 72857.53 0 0 1 15.475 28.428 3.148 3.148 0 0 1 .243.446c9.01 16.561 18.311 33.665 27.228 50.06l12.09 22.238a3.087 3.087 0 0 1-.282 3.442 3.052 3.052 0 0 1-.643.604c-12.313 8.85-24.047 13.443-36.922 14.448q-1.488.115-3.01.115Zm-54.307-15.34c2.304 0 4.589.083 6.876.242 7.992.56 16.127 2.655 23.993 4.68 9.446 2.433 18.389 4.72 25.967 4.138 11.1-.868 20.943-4.52 31.596-11.766l-10.792-19.844c-8.668-15.941-17.697-32.55-26.472-48.677h-24.024a3.092 3.092 0 0 1 0-6.185h20.659c-4.485-8.242-8.88-16.317-13.105-24.067v-.002a3.076 3.076 0 0 0-5.4.007l-.385.724-54.005 103.704a115.767 115.767 0 0 1 25.092-2.954Zm-38.644-39.118-16.072 29.777a69.008 69.008 0 0 1 29.87-1.568l13.087-25.13-14.035-25.779-.003-.005c-.027-.05.006-.198-.296-.17a.305.305 0 0 0-.298.173l-.006.012-8.909 16.505h9.03a3.092 3.092 0 1 1 0 6.185Zm16.046-56.542v12.135l13.987-6.3-13.987-5.835Zm58.175-48.167v17.165l19.787-8.913-19.787-8.252Zm11.995 87.399a3.092 3.092 0 0 0 0-6.185h-8.847a3.092 3.092 0 0 0 0 6.185ZM159.983 733.389a2.595 2.595 0 0 1-.332-.017c-9.353-.884-14.934-8-14.934-19.042V609.466c0-10.54 7.666-15.26 15.262-15.26h94.233a3.092 3.092 0 0 1 3.092 3.092v133a3.091 3.091 0 0 1-3.092 3.09h-94.23Zm.146-6.182h90.99v-6.825h-84.448a3.09 3.09 0 1 1 0-6.181h84.448v-7.819h-70.845a3.09 3.09 0 1 1 0-6.181h70.845v-6.712h-85.44c-13.337 0-14.777 9.231-14.777 13.2v7.64c0 7.92 3.104 12.252 9.227 12.878Zm-9.227-117.74v82.68c3.319-2.91 8.125-4.84 14.777-4.84h85.44v-86.919h-86.917v73.86a3.092 3.092 0 0 1-6.184 0v-73.706c-3.026.48-7.116 2.347-7.116 8.924Zm77.675 30.822h.005a5.934 5.934 0 0 0 5.922-5.927v-13.33a5.933 5.933 0 0 0-5.927-5.927h-47.53a5.933 5.933 0 0 0-5.929 5.926v13.331a5.935 5.935 0 0 0 5.923 5.927h47.536Zm-47.274-6.183h47.016v-12.819h-47.016ZM1046.463 345.208a3.092 3.092 0 0 1-3.092-3.092v-10.511a3.073 3.073 0 0 1 .558-1.858c.845-1.212 1.83-2.419 2.833-3.643a43.062 43.062 0 0 0 3.48-4.652 34.7 34.7 0 0 1-4.833-5.234 32.507 32.507 0 0 1-8.681 14.08 3.087 3.087 0 0 1 .327 1.386v10.432a3.09 3.09 0 1 1-6.182 0v-7.991a22.154 22.154 0 0 1-6.32 1.73v6.26a3.09 3.09 0 1 1-6.181 0v-6.073h-23.046v6.074a3.09 3.09 0 1 1-6.182 0v-6.273a23.223 23.223 0 0 1-7.302-2.134v8.407a3.09 3.09 0 1 1-6.181 0v-10.432a3.076 3.076 0 0 1 .573-1.797 33.73 33.73 0 0 1-8.902-14.525 36.549 36.549 0 0 1-5.523 6.11 54.113 54.113 0 0 0 3.884 5.594c.723.956 1.43 1.893 2.076 2.806a3.156 3.156 0 0 1 .442.875 3.05 3.05 0 0 1 .142.975v10.394a3.091 3.091 0 1 1-6.182 0v-2.125h-18.444a3.092 3.092 0 0 1 0-6.185h18.444v-1.125c-.453-.618-.928-1.247-1.41-1.884a42.35 42.35 0 0 1-5.678-9.01.177.177 0 0 1-.011-.024v-.004a1.013 1.013 0 0 1-.035-.091c-.385-1.037-7.247-19.959-3.3-35.891a86.43 86.43 0 0 1 11.482-25.686 23.71 23.71 0 0 1-.672-2.63 21.836 21.836 0 0 1 4.936-18.477 3.09 3.09 0 0 1 2.495-1.015c9.443.616 26.803 2.649 36.96 9.335l.036.023.044-.03c10.173-6.702 27.218-8.724 36.474-9.332a3.071 3.071 0 0 1 2.515 1.034 23.22 23.22 0 0 1 3.85 24.954 55.613 55.613 0 0 1 10.481 21.825c3.962 15.99-2.967 34.993-3.304 35.901l-.009.016-.027.075a32.523 32.523 0 0 1-5.452 8.25c-.689.842-1.37 1.672-1.992 2.502v1.284h18.443a3.092 3.092 0 0 1 0 6.185h-18.443v2.125a3.092 3.092 0 0 1-3.091 3.092Zm-54.214-15.35h29.214c15.658 0 18.96-18.51 19.355-21.212-5.586-11.443-7.17-24.802-7.617-31.393a23.889 23.889 0 0 1-14.879-1.94 3.08 3.08 0 0 1-1.073 1.578l-9.067 7.05a3.094 3.094 0 0 1-3.753.033l-9.333-7a3.09 3.09 0 0 1-1.233-2.296 23.828 23.828 0 0 1-13.555 1.024c-.643 6.36-2.627 20.088-8.395 31.934a3.002 3.002 0 0 1 .067.354c.11.886 2.93 21.72 20.269 21.867Zm-25.774-63.307a79.537 79.537 0 0 0-8.737 20.712c-2.454 9.919.016 21.678 1.74 27.901 11.518-11.938 14.278-35.43 14.82-41.718a23.406 23.406 0 0 1-7.823-6.895Zm72.806 8.567c.349 6.659 2.32 28.54 13.316 40.038 1.727-6.225 4.195-17.98 1.74-27.892a51.69 51.69 0 0 0-8.007-17.746 23.424 23.424 0 0 1-7.05 5.6Zm-40.477-3.092.004.002 7.444 5.582 7.145-5.558a23.2 23.2 0 0 1-6.679-9.727 23.183 23.183 0 0 1-7.914 9.701Zm12.842-20.323a27.392 27.392 0 0 0-.003 4.647 17.085 17.085 0 1 0 30.672-12.1c-8.472.65-22.087 2.457-30.669 7.453Zm-40.48-7.45a15.982 15.982 0 0 0-2.547 12.029 17.086 17.086 0 0 0 33.592-.313 14.988 14.988 0 0 0 .217-4.188c-8.855-5.173-23.715-6.943-31.261-7.527Zm58.974 15.528a3.092 3.092 0 0 0 0-6.185h-5.136a3.092 3.092 0 0 0 0 6.185Zm-43.205 0a3.092 3.092 0 0 0 0-6.185h-5.136a3.092 3.092 0 0 0 0 6.185Zm61.954-19.528a3.091 3.091 0 0 0 3.09-3.092v-17.652a3.09 3.09 0 1 0-6.181 0v17.652a3.091 3.091 0 0 0 3.09 3.092Zm-83.913-.046a3.091 3.091 0 0 0 3.091-3.093V219.51a3.09 3.09 0 1 0-6.182 0v17.605a3.091 3.091 0 0 0 3.091 3.093Zm33.565-16.862h-21.208a3.092 3.092 0 0 1 0-6.185h21.207a3.092 3.092 0 0 1 0 6.185Zm67.546-12.503H947.779a3.092 3.092 0 0 1 0-6.184h118.308a3.092 3.092 0 0 1 0 6.184ZM1171.21 706.084h-83.54a8.835 8.835 0 0 1-8.533-8.453v-7.659a3.091 3.091 0 0 1 3.092-3.09h3.362v-30.144h-3.362a3.092 3.092 0 0 1-3.092-3.092v-8.372a7.583 7.583 0 0 1 3.84-6.46c-10.67-6.006-17.818-16.923-17.818-29.372 0-18.898 16.481-34.274 36.74-34.274h83.534c4.395 0 7.464 3.186 7.464 7.747v8.366a3.092 3.092 0 0 1-3.091 3.092h-3.363v30.142h3.363a3.09 3.09 0 0 1 3.091 3.09v7.654a8.986 8.986 0 0 1-3.118 6.984c10.865 5.96 18.17 16.981 18.17 29.565 0 18.9-16.48 34.276-36.738 34.276Zm-83.535-6.183h83.536c16.847 0 30.556-12.602 30.556-28.093 0-15.488-13.71-28.09-30.556-28.09h-83.536c-1.269 0-2.355.859-2.355 1.561v5.276h85.89c15.11 0 24.495 8.142 24.495 21.253s-9.385 21.256-24.494 21.256a3.091 3.091 0 0 1 0-6.183c5.506 0 18.313-1.468 18.313-15.073 0-13.602-12.807-15.07-18.313-15.07h-79.438v11.979h75.026a3.09 3.09 0 1 1 0 6.181h-75.026v11.983h58.41a3.091 3.091 0 0 1 0 6.183h-64.863v4.561a2.756 2.756 0 0 0 2.355 2.276Zm83.536-62.366h14.222c.958 0 1.282-1.562 1.282-2.276v-4.562H1101.9c-14.2 0-22.019-7.55-22.019-21.255s7.818-21.254 22.019-21.254a3.092 3.092 0 0 1 0 6.185c-10.95 0-15.837 4.646-15.837 15.069 0 10.423 4.887 15.073 15.837 15.073h78.362v-30.142h-60.525a3.092 3.092 0 0 1 0-6.185h66.978v-5.273c0-1.562-.802-1.562-1.282-1.562H1101.9c-16.85 0-30.56 12.6-30.56 28.089 0 15.49 13.71 28.093 30.56 28.093ZM1139.708 548.283a9.381 9.381 0 0 1-1.628-.141l-.005-.002-50.364-8.88a3.093 3.093 0 0 1 1.075-6.092l50.362 8.882h.003c2.621.462 5.44-2.35 6.116-6.157l18.117-102.763c.02-.12.04-.24.055-.36a3.093 3.093 0 0 1-.123-2.222l.123-.372a7.633 7.633 0 0 0-.812-2.56 4.347 4.347 0 0 0-2.883-2.36l-.008-.003-4.164-.733a3.078 3.078 0 0 1-1.29-.552l-16.537 93.769a.02.02 0 0 1-.002.012c-1.255 7.115-7.13 12.047-13.086 11.006l-.012-.004-48.62-8.573c-1.642 9.1-9.732 15.303-18.074 13.835-8.343-1.472-13.828-10.068-12.257-19.184l-46.239-8.151-.005-.002a14.914 14.914 0 0 1-8.28-5.164c-2.665-3.149-3.805-6.754-3.211-10.154a.04.04 0 0 1 .002-.018l16.534-93.783a3.088 3.088 0 0 1-1.4.077l-4.167-.734-.008-.002a4.335 4.335 0 0 0-3.52 1.232 8.668 8.668 0 0 0-2.59 4.919l-.003.003-18.12 102.763c-.67 3.803.995 7.411 3.636 7.877h.003l53.258 9.39a3.093 3.093 0 0 1-1.076 6.093l-53.258-9.392-.003-.001c-6.042-1.067-9.921-7.81-8.652-15.035l.002-.005 18.12-102.762v-.006a14.753 14.753 0 0 1 4.563-8.455 10.43 10.43 0 0 1 8.71-2.712l.011.003 4.164.733a3.066 3.066 0 0 1 1.294.551l.227-1.284c1.32-7.491 10.511-11.455 16.046-10.485h.006l53.353 9.409.01.002a10.229 10.229 0 0 1 7.075 5.289 10.154 10.154 0 0 1 8.438-2.555h.006l56.305 9.931.008.002a10.263 10.263 0 0 1 7.17 5.44 14.569 14.569 0 0 1 1.37 9.365.016.016 0 0 1-.003.012l-.224 1.286a3.112 3.112 0 0 1 1.402-.078l4.162.735.01.001a10.15 10.15 0 0 1 6.49 4.284 22.234 22.234 0 0 1 10.492-6.772 4.468 4.468 0 0 0 3.115-3.493 4.427 4.427 0 0 0-1.726-4.344 21.358 21.358 0 0 1-8.573-20.813v-.009l1.625-9.22a7.248 7.248 0 0 1-4.224-7.876l.002-.013a7.262 7.262 0 0 1 8.387-5.868l40.824 7.198.01.003a7.249 7.249 0 0 1 5.868 8.386v.007a7.264 7.264 0 0 1-6.665 5.96l-1.628 9.225v.006a21.359 21.359 0 0 1-15.167 16.617 4.422 4.422 0 0 0-2.056 1.31.159.159 0 0 1-.014.014 4.45 4.45 0 0 0 .68 6.514 21.35 21.35 0 0 1 8.574 20.81v.004l-1.625 9.226a7.24 7.24 0 0 1-4.143 13.762h-.01l-35.76-6.176-13.94 79.06v.01c-1.167 6.569-6.199 11.307-11.648 11.307Zm-87.926-32.379c-.98 5.756 2.257 11.14 7.242 12.017 4.985.89 9.86-3.073 10.909-8.816l-1.584-.279h-.011l-7.766-1.37-.003-.002-7.752-1.367h-.008l-1.027-.183Zm73.94 6.757.005.002c2.58.461 5.27-2.287 5.924-5.98l.003-.007 17.728-100.53v-.004a8.487 8.487 0 0 0-.728-5.375 4.196 4.196 0 0 0-2.792-2.273l-.01-.003-56.308-9.93c-2.517-.433-5.27 2.292-5.924 5.988v.002l-18.928 107.35 4.722.833.011.003 56.297 9.924Zm-71.826-12.664 4.705.83 18.93-107.35v-.005a8.494 8.494 0 0 0-.724-5.375 4.188 4.188 0 0 0-2.781-2.27l-.011-.002-53.354-9.409c-2.896-.496-8.265 1.95-8.886 5.467l-17.725 100.53a6.542 6.542 0 0 0 1.842 5.105 8.956 8.956 0 0 0 4.631 3.07h.008l53.354 9.406.011.003Zm148.23-52.008a1.089 1.089 0 0 0 1.216-.856 1.068 1.068 0 0 0-.856-1.22 3.125 3.125 0 0 1-.667-.198 2.962 2.962 0 0 1-.684-.041l-34.398-5.937-.369 2.079 35.742 6.17.016.003Zm-34.316-14.342 31.341 5.408 1.594-9.035v-.003a15.204 15.204 0 0 0-6.18-14.778 10.64 10.64 0 0 1 3.315-18.723 15.206 15.206 0 0 0 10.849-11.77v-.002l1.592-9.024-32.022-5.647-1.592 9.027v.01a15.204 15.204 0 0 0 6.178 14.77 10.636 10.636 0 0 1-3.315 18.721 15.58 15.58 0 0 0-9.858 8.5 15.68 15.68 0 0 1-.238 3.103v.006l-1.664 9.437Zm47.99-63.241a1.065 1.065 0 0 0 .784-.179 1.044 1.044 0 0 0 .435-.672l.002-.007a1.068 1.068 0 0 0-.857-1.219l-40.824-7.197-.008-.003a1.072 1.072 0 0 0-1.22.852l-.003.002a1.07 1.07 0 0 0 .857 1.223l.005.001 39.47 6.959.057.011 1.302.229Zm-93.455 122.955a3.093 3.093 0 0 0 .536-6.138l-42.248-7.448a3.093 3.093 0 0 0-1.076 6.092l42.248 7.447a3.12 3.12 0 0 0 .54.047Zm-71.847-12.668a3.092 3.092 0 0 0 .532-6.138l-5.023-.885a3.093 3.093 0 0 0-1.071 6.091l5.024.886a3.151 3.151 0 0 0 .538.046Zm-17.759-3.13a3.093 3.093 0 0 0 .536-6.138l-24.484-4.318a3.093 3.093 0 0 0-1.076 6.091l24.484 4.318a3.248 3.248 0 0 0 .54.046Zm71.425-12.59a3.093 3.093 0 0 0 .535-6.137l-19.237-3.393a3.093 3.093 0 0 0-1.077 6.09l19.239 3.394a3.204 3.204 0 0 0 .54.046Zm-54.756-9.654a3.093 3.093 0 0 0 .535-6.139l-36.324-6.404a3.093 3.093 0 0 0-1.075 6.092l36.323 6.404a3.138 3.138 0 0 0 .54.047Zm74.751-11.617a3.093 3.093 0 0 0 .536-6.138l-35.434-6.248a3.093 3.093 0 0 0-1.075 6.09l35.433 6.249a3.162 3.162 0 0 0 .54.047Zm-82.792-14.599a3.093 3.093 0 0 0 .535-6.138l-24.486-4.318a3.093 3.093 0 0 0-1.076 6.091l24.487 4.318a3.156 3.156 0 0 0 .54.047Zm94.026-9.253a3.093 3.093 0 0 0 .535-6.137l-42.25-7.45a3.093 3.093 0 0 0-1.076 6.091l42.25 7.45a3.227 3.227 0 0 0 .541.046Zm-71.848-12.67a3.092 3.092 0 0 0 .533-6.137l-4.862-.857a3.092 3.092 0 0 0-1.07 6.092l4.86.856a3.092 3.092 0 0 0 .539.046Zm-15.987-2.819a3.093 3.093 0 0 0 .535-6.138l-26.257-4.629a3.093 3.093 0 0 0-1.076 6.092l26.256 4.63a3.249 3.249 0 0 0 .542.045ZM1087.814 339.345a2.812 2.812 0 0 1-.738-5.525 63.708 63.708 0 0 0 30.04-18.126l-3.544-5.409c-6.012-1.5-10.72-4.929-12.721-9.322a17.88 17.88 0 0 1 .708-16.189 2.81 2.81 0 0 1 3.003-1.37c6.567 1.326 11.76 4.909 13.896 9.585a17.905 17.905 0 0 1 .08 14.616l2.363 3.606a63.75 63.75 0 0 0 12.784-32.218 2.84 2.84 0 0 1 3.089-2.5 2.81 2.81 0 0 1 2.5 3.09 68.961 68.961 0 0 1-27.187 48.186c1.842.232 3.8.398 5.463.496a17.884 17.884 0 0 1 11.715-8.421c5.03-1.056 10.992 1.004 15.955 5.503a2.812 2.812 0 0 1 .678 3.231 17.892 17.892 0 0 1-12.613 10.17c-4.782.999-10.38-.798-15.176-4.822-2.55-.127-8.927-.552-12.663-1.752a70.337 70.337 0 0 1-16.888 7.07 2.846 2.846 0 0 1-.744.101Zm35-8.89c2.652 1.9 6.183 3.454 9.315 2.791a12.26 12.26 0 0 0 7.604-5.111c-2.655-1.898-6.194-3.438-9.314-2.79a12.245 12.245 0 0 0-7.605 5.11Zm-17.244-40.978a12.254 12.254 0 0 0 .398 9.154c1.32 2.901 4.664 4.835 7.768 5.847a12.257 12.257 0 0 0-.395-9.156c-1.323-2.9-4.666-4.835-7.771-5.845Zm-6.847 36.216a2.81 2.81 0 0 0 2.444-1.421 17.87 17.87 0 0 0 .73-16.188c-2.125-4.679-7.313-8.269-13.88-9.604a2.813 2.813 0 0 0-3.003 1.364 17.875 17.875 0 0 0-.732 16.19c2.127 4.678 7.315 8.267 13.881 9.603a2.745 2.745 0 0 0 .56.056Zm-9.706-21.141a12.262 12.262 0 0 0 .381 9.156c1.32 2.903 4.662 4.84 7.764 5.855a12.236 12.236 0 0 0-.382-9.153c-1.32-2.904-4.658-4.843-7.763-5.858Zm53.044 14.148a14.75 14.75 0 0 0 7.032-1.648 17.886 17.886 0 0 0 9.21-13.333 2.813 2.813 0 0 0-1.564-2.905c-6.04-2.91-12.345-3.188-16.863-.75a17.885 17.885 0 0 0-9.21 13.334 2.81 2.81 0 0 0 1.567 2.904 22.884 22.884 0 0 0 9.828 2.398Zm-5.359-6.628c3.089 1.068 6.92 1.547 9.724.032a12.249 12.249 0 0 0 5.841-7.06c-3.085-1.069-6.918-1.545-9.723-.031a12.253 12.253 0 0 0-5.842 7.06Zm10.072-17.18c5.188 0 9.77-1.65 12.677-4.66a17.886 17.886 0 0 0 4.732-15.498 2.81 2.81 0 0 0-2.372-2.293c-6.643-.94-12.728.705-16.297 4.399a17.892 17.892 0 0 0-4.732 15.498 2.81 2.81 0 0 0 2.374 2.295 25.957 25.957 0 0 0 3.618.259Zm-.642-5.648c3.261.092 7.063-.625 9.273-2.918a12.249 12.249 0 0 0 3.428-8.498c-3.264-.07-7.06.626-9.273 2.918a12.244 12.244 0 0 0-3.429 8.498Zm-20.169 1.854a2.816 2.816 0 0 0 2.392-1.331 17.873 17.873 0 0 0 1.33-16.15c-1.946-4.752-7-8.533-13.514-10.113a2.819 2.819 0 0 0-3.052 1.254 17.892 17.892 0 0 0-1.332 16.149c1.952 4.754 7.003 8.534 13.515 10.111a2.76 2.76 0 0 0 .662.08Zm-9.017-21.489a12.258 12.258 0 0 0 .04 9.164c1.214 2.95 4.478 5.011 7.542 6.14a12.24 12.24 0 0 0-.042-9.162c-1.21-2.949-4.476-5.01-7.54-6.142Zm20.195 4.055a2.8 2.8 0 0 1-1.647-.534c-5.43-3.928-8.674-9.34-8.677-14.48a17.873 17.873 0 0 1 7.349-14.44 2.81 2.81 0 0 1 3.3-.002c5.427 3.926 8.671 9.338 8.677 14.476a17.879 17.879 0 0 1-7.35 14.442 2.802 2.802 0 0 1-1.652.538Zm-1.27-23.514a12.248 12.248 0 0 0-3.432 8.497c.003 3.189 2.243 6.333 4.65 8.539a12.252 12.252 0 0 0 3.431-8.497c-.002-3.188-2.245-6.332-4.65-8.539ZM657.311 359.163a3.008 3.008 0 0 1-.395-.026 45.289 45.289 0 0 1-19-7.015c-7.995-5.256-13.476-13.177-16.855-19.446-24.964-.028-46.595-.028-50.575-.028-9.479 0-34.08-6.522-34.08-36.305 0-29.135 24.61-35.358 32.302-36.589 2.867-8.563 15.052-27.698 39.335-27.698 21.68 0 31.278 12.767 34.444 18.361 4.97-1.183 15.862-2.568 24.969 4.694 10.559 8.085 11.764 17.676 11.604 22.431 6.165 2.053 20.391 8.86 20.391 27.99 0 24.493-21.833 27.075-22.053 27.098a2.953 2.953 0 0 1-.325.018l-13.502-.004c-2.428 1.645-5.42 6.996-5.684 11.515a21.428 21.428 0 0 0 2.213 10.576 3.093 3.093 0 0 1-2.789 4.428ZM608.043 238.24c-24.05 0-33.349 21.697-33.824 24.787a3.094 3.094 0 0 1-2.866 2.616c-1.169.075-28.762 2.21-28.762 30.699 0 24.71 20.136 30.12 27.895 30.12 4.08 0 26.702 0 52.454.03a3.092 3.092 0 0 1 2.756 1.698c2.931 5.803 8.02 13.77 15.618 18.763a38.868 38.868 0 0 0 11.212 5.022 26.432 26.432 0 0 1-.813-8.18c.362-6.189 4.36-14.515 9.734-17.043a3.099 3.099 0 0 1 1.316-.294h.002l14.118.004c1.674-.23 16.386-2.782 16.386-20.93 0-19.192-17.36-22.541-18.1-22.674a3.094 3.094 0 0 1-2.465-3.735c.087-.406 2.11-10.59-9.056-19.14-9.254-7.38-21.594-3.028-21.717-2.983a3.1 3.1 0 0 1-3.94-1.773c-.276-.682-7.114-16.987-29.948-16.987Zm18.8 70.946a3.092 3.092 0 0 0 0-6.185H596.53a3.092 3.092 0 0 0 0 6.185ZM642 293.305a3.092 3.092 0 0 0 0-6.185h-15.155a3.092 3.092 0 1 0 0 6.185Zm-27.28 0a3.092 3.092 0 0 0 0-6.185h-33.347a3.092 3.092 0 0 0 0 6.185Zm14.153-15.88a3.092 3.092 0 1 0 0-6.185h-34.798a3.092 3.092 0 1 0 0 6.184ZM240.721 577.018h-30.728a3.092 3.092 0 1 1 0-6.185h30.728a3.092 3.092 0 0 1 0 6.185Zm-15.24-14.22h-4.633a3.092 3.092 0 0 1 0-6.185h4.632a3.092 3.092 0 1 1 0 6.185Zm-16.97 0h-21.43a3.092 3.092 0 1 1 0-6.185h21.43a3.092 3.092 0 1 1 0 6.185Z"/><path fill="#7a5d58" d="M173.584 798.691H1243.54v40.169H173.584z"/><path fill="#bc8667" fill-rule="evenodd" d="M1305.186 773.218H111.958L363.71 667.145h694.959l246.517 106.073z"/><path fill="#d0a989" d="M111.985 773.078h1193.154V803H111.985z"/><path fill="#8ec475" fill-rule="evenodd" d="m393.693 695.976-99.457 43.487c-1.826.798.16 4.594 1.47 4.57 26.366-.486 55.315-7.057 82.464-8.463 17.264-.894 34.587.926 47.527 5.704a33.993 33.993 0 0 0 11.382 1.967c6.112.068 12.83-3.1 21.07-5.113a116.265 116.265 0 0 1 27.549-2.937c33.917.38 68.316 12.457 101.412 8.895l84.694-54.211-42.596-1.206Z"/><path fill="#c1c1c1" fill-rule="evenodd" d="m583.827 722.26 78.912-42.678-.104 9.438-78.798 49.555-.01-16.315z"/><path fill="#cfd0d0" fill-rule="evenodd" d="M525.74 692.907c-26.138-17.559-43.306-17.32-64.712-15.79-19.744 1.411-35.223 4.8-54.438 3.328l-105.531 47.092c16.283 3.718 103.03-14.283 136.292 8.519Z"/><path fill="#fefefe" fill-rule="evenodd" d="M437.374 736.02c18.078-17.414 50.544-19.634 75.945-19.523 27.973.122 58.046 5.71 70.605 5.692l.025 16.556c-44.366 1.673-102.359-21.398-143.034.605l-6.675-.093c-40.401-21.174-104.865-.574-132.51-.166l-.467-8.675-.213-3.055c34.842-4.486 59.77-11.995 90.866-10.086 15.951.98 35.334 6.223 45.458 18.745Z"/><path fill="#e6e7e7" fill-rule="evenodd" d="m455.889 724.519 87.612-39.874c13.71-5.105 26.663.037 43.857-.46 23.94-.692 49.086.138 75.978-4.43l-79.41 46.3c-13.006 1.092-42.724-3.284-62.066-5.763-24.519-3.142-44.55-2.656-65.971 4.227Z"/><path fill="#c1c1c1" fill-rule="evenodd" d="M583.981 732.016c-7.333-.165-23.23-1.399-38.053-3.392-4.416-.594-25.847-4.483-41.317-5.741 11.496-.126 25.752 2.325 41.579 4.23 10.321 1.244 25.264 3.112 37.79 2.654ZM301.333 733.504c9.854-1.616 25.604-4.07 41.465-8.566-14.593 2.331-31.763 4.202-41.593 4.48Z"/><path fill="#bc8667" fill-rule="evenodd" d="M301.29 733.492c3.361-1.485 8.567-3.373 11.927-4.86-3.725.346-8.923.705-12.058.762Z"/><path fill="#a0a1a1" fill-rule="evenodd" d="m583.908 729.729 78.787-47.231.02 1.957-78.78 47.605-.027-2.331z"/><path fill="#bc8667" fill-rule="evenodd" d="m663.068 684.459-4.362.42 4.275-2.617.087 2.197z"/><path fill="#b2b3b3" fill-rule="evenodd" d="M439.349 720.023c-8.325-7.283-23.382-11.856-33.322-12.463-20.744-1.254-40.494 1.878-50.421 3.862l-.39-1.954c10.02-2.004 29.962-5.166 50.932-3.895 10.27.625 25.854 5.377 34.512 12.951Z"/><path fill="#c4c5c5" fill-rule="evenodd" d="M575.752 715.137c-9.441 0-20.337-1.178-31.764-2.414-17.695-1.91-35.994-3.889-50.325-1.558l-.321-1.966c14.602-2.374 33.036-.382 50.86 1.543 13.548 1.466 26.351 2.844 36.735 2.268l.113 1.987q-2.562.143-5.298.14Zm12.64-5.932c1.825 0 3.598-.044 5.307-.14l-.113-1.988c-10.382.582-23.186-.799-36.739-2.265-17.826-1.93-36.26-3.925-50.856-1.543l.321 1.966c14.329-2.33 32.626-.357 50.32 1.557 11.427 1.235 22.321 2.413 31.76 2.413Zm11.422-6.803c-9.127 0-19.49-.974-30.346-1.996-17.552-1.65-35.699-3.36-50.145-1.001l-.321-1.966c14.704-2.4 32.98-.678 50.651.986 13.201 1.24 25.669 2.407 35.956 1.833l.112 1.987q-2.853.162-5.907.157Zm12.924-5.96c2.028 0 3.998-.05 5.896-.156l-.112-1.987c-10.29.576-22.753-.596-35.948-1.837-17.678-1.66-35.954-3.385-50.657-.986l.32 1.966c14.45-2.348 32.6-.645 50.15 1.005 10.86 1.02 21.225 1.996 30.35 1.996Z"/><path fill="#b2b3b3" fill-rule="evenodd" d="M449.54 714.524c-18.716-14.463-45.705-18.304-80.23-11.403l-.39-1.954c35.111-7.011 62.647-3.05 81.84 11.782Z"/><path fill="#6d5855" fill-rule="evenodd" d="m464.632 588.535 3.988 78.61h102.826l-6.19-76.898-100.624-1.712zM552.493 598.86c9.474 14.564 25.94 42.396 40.969 59.444 9.112 10.339 26.54 17.746 36.303 5.694 1.896-14.55-35.23-87.947-53.084-111.696-9.26 8.573-23.916 35.748-24.188 46.559Z"/><path fill="url(#c)" fill-rule="evenodd" d="m491.975 534.488 8.415-1.981 2.396-42.19 22.198 3.092 6.443 38.487 8.352.522c-.86 11.098-7.914 25.511-28.07 23.72-12.205-1.084-18.71-11.52-19.734-21.65Z"/><path fill="#6d5855" fill-rule="evenodd" d="M461.278 550.905c-6.575 8.62-16.712 21.611-26.285 45.411l157.148-3.022c-2.725-19.038-8.002-33.61-20.558-47.274-6.766-8.032-22.47-12.84-33.693-14.543-2.794 16.173-13.23 23.663-25.313 22.76-12.391-.924-16.969-10.847-17.69-21.172-13.296 3.11-25.943 7.788-33.609 17.84Z"/><path fill="#6d5855" fill-rule="evenodd" d="M476.615 604.84c-14.916 27.048-30.11 46.783-45.13 67.254-4.94 4.734-15.789 5.952-20.8 5.693-4.272-.59-8.482-7.057-9.251-14.673 4.238-21.906 37.868-82.974 56.723-108.029 8.207 13.489 17.862 44.471 18.458 49.755Z"/><path fill="url(#a)" fill-rule="evenodd" d="M502.346 521.066c50.9-3.734 70.724-47.685 69.409-82.688-5.295-46.545-46.19-62.732-86.466-58.366-55.393 6.008-42.837 39.603-35.526 72.825-11.656 29.966 21.68 65.977 52.583 68.229Z"/><path fill="url(#d)" fill-rule="evenodd" d="M446.94 443.098a147.36 147.36 0 0 1-8.886-21.04c-2.117-.514-8.45-3.28-10.22-5.145.234-6.164 2.278-26.734 16.054-41.619 11.058-11.947 25.95-18.542 41.994-16.395 9.02-6.107 17.144-9.155 25.811-9.892 10.298-.877 21.174 1.624 32.51 7.722 14.936 8.036 24.755 21.529 29.613 36.793 6.244 19.615 3.831 39.05-1.907 58.437-5.016-11.972-11.587-30.155-17.757-42.84-22.682 6.364-55.36 14.892-87.034 13.645a93.31 93.31 0 0 1-2.917-25.384c-7.306 8.122-7.816 20.17-8.47 25.819a77.851 77.851 0 0 1-9.37.016c-.508 7.923.01 10.78.578 19.883Z"/><path fill="#bc764e" fill-rule="evenodd" d="M513.76 423.592c-1.669 2.717-2.928 5.53-2.404 8.163 7.608-.827 17.698-.994 24.956 1.301-2.178-7.56-16.84-9.794-22.553-9.464ZM469.015 429.757a16.494 16.494 0 0 1 4.127 7.462 106.6 106.6 0 0 0-22.078 6.8c.861-6.967 10.986-12.353 17.951-14.262Z"/><path fill="#fff" fill-rule="evenodd" d="M508.085 449.41c.883 4.902 4.926 8.131 12.68 7.229 7.755-.9 13.09-5.574 12.457-10.513-.528-4.151-5.248-7.76-13.003-6.859-7.754.902-13.018 5.248-12.134 10.143ZM455.413 455.4c.593 4.669 5.155 7.612 11.457 6.733 7.236-1.009 12.675-5.175 12.236-9.96-.382-4.153-4.176-7.72-11.777-7.138-7.27.557-12.602 4.952-11.916 10.365Z"/><path fill="#3d454a" fill-rule="evenodd" d="M526.56 447.85a7.737 7.737 0 0 1-7.131 8.311c-4.449.392-8.114-2.52-8.568-7.556a7.539 7.539 0 0 1 5.184-7.722c4.554-1.564 9.974.555 10.515 6.968ZM472.397 457.997a7.513 7.513 0 0 1-9.964 2.73 7.89 7.89 0 0 1-2.905-10.636c1.934-3.438 7.648-5.003 11.167-2.15a7.987 7.987 0 0 1 1.702 10.056Z"/><path fill="#a75125" fill-rule="evenodd" d="M497.328 352.912a38.849 38.849 0 0 1-6.92 3.928c.644-3.387-1.053-8.718-4.32-10.884-1.609-1.069-1.24-2.137 1.89-1.617 4.26.706 8.449 4.978 9.35 8.573Z"/><path fill="#733313" fill-rule="evenodd" d="M559.73 406.89c-2.742-11.514-13.672-25.709-15.685-26.725l1.101-2.508c3.084 1.34 14.433 16.766 17.248 28.598ZM544.524 410.11a39.217 39.217 0 0 0-5.974-13.204l2.29-1.507a44.206 44.206 0 0 1 6.365 14.167Z"/><path fill="#a85226" fill-rule="evenodd" d="M464.288 349.961c6.627-3.932 20.181-5.05 26.593 6.566-2.444 1.307-7.283 3.386-9.272 4.44-2.62-3.918-7.1-9.556-16.39-8.347-1.546.202-2.79.516-3.587.625-.846.115-.073-1.666 2.656-3.284Z"/><path fill="#d89058" fill-rule="evenodd" d="M494.046 463.853c-7.476-.047-11.487 5.75-6.922 10.265-.365-3.38 2.511-5.812 6.313-6.254 3.256-.38 8.228.895 12.256 2.228a14.892 14.892 0 0 0-11.647-6.239Z"/><path fill="#6d5855" fill-rule="evenodd" d="m444.56 456.697.018.06a24.014 24.014 0 0 0 10.847 14.127 21.866 21.866 0 0 0 17.149 2.278l.057-.016a21.977 21.977 0 0 0 13.408-11.059 24.128 24.128 0 0 0 1.753-17.812l-.017-.056a24.01 24.01 0 0 0-10.85-14.13 21.872 21.872 0 0 0-17.152-2.278l-.054.016a21.975 21.975 0 0 0-13.405 11.058 24.133 24.133 0 0 0-1.753 17.812Zm2.63-.687-.017-.06a21.422 21.422 0 0 1 1.55-15.81 19.281 19.281 0 0 1 11.743-9.702l.044-.011a19.158 19.158 0 0 1 15.035 2.001 21.31 21.31 0 0 1 9.622 12.55l.013.045a21.41 21.41 0 0 1-1.55 15.809 19.28 19.28 0 0 1-11.757 9.706l-.046.012a19.155 19.155 0 0 1-15.022-2.004 21.305 21.305 0 0 1-9.615-12.536ZM500.717 454.224a24.663 24.663 0 0 0 13.829 12.674 24.076 24.076 0 0 0 18.598-.784l.038-.017a23.998 23.998 0 0 0 12.422-13.786 24.577 24.577 0 0 0-.954-18.664l-.023-.05a24.67 24.67 0 0 0-13.825-12.67 24.065 24.065 0 0 0-18.592.78l-.046.02a24.003 24.003 0 0 0-12.42 13.786 24.582 24.582 0 0 0 .955 18.67l.018.041Zm14.77 10.12a21.947 21.947 0 0 1-12.303-11.28l-.017-.036a21.878 21.878 0 0 1-.859-16.612 21.28 21.28 0 0 1 11.022-12.224l.04-.019a21.355 21.355 0 0 1 16.491-.693 21.953 21.953 0 0 1 12.302 11.282l.02.045a21.862 21.862 0 0 1 .857 16.6 21.282 21.282 0 0 1-11.013 12.222l-.032.015a21.375 21.375 0 0 1-16.508.7Z"/><path fill="#6d5855" fill-rule="evenodd" d="m569.709 430.613-24.863 9.493.976 2.542 24.864-9.493-.977-2.542zM500.716 444.917c-5.117-1.452-11.118-2.51-14.39 2.704l.908 2.592c2.904-5.11 7.74-4.102 12.745-2.683Z"/><path fill="#d89058" fill-rule="evenodd" d="M482.498 493.195c15.611 5.119 34.957-1.217 46.767-11.535-3.99 9.293-14.377 14.598-19.424 16.065-9.069 2.638-18.828 1.723-27.343-4.53Z"/><path fill="#bc764e" fill-rule="evenodd" d="M532.566 441.434c-10.02-1.414-17.856.091-24.875 3.553 1.301-3.73 4.85-5.726 9.017-6.94 5.072-1.478 12.753-.065 15.858 3.387ZM477.025 447.774c-9.31-1.304-15.99.655-21.986 4.496.96-3.626 4.015-5.689 7.664-7.034 4.442-1.638 11.367-.625 14.322 2.538Z"/><path fill="#ffbf7e" fill-rule="evenodd" d="M585.603 444.804c-2.494 7.778-9.723 12.645-16.156 10.866-6.428-1.773-9.62-9.519-7.127-17.302 2.49-7.783 9.725-12.649 16.15-10.873 6.43 1.776 9.628 9.525 7.133 17.309Z"/><path fill="#6d5855" fill-rule="evenodd" d="M536.602 661.997c6.31-2.596 48.139-9.93 57.795-11.762 11.693-2.216 35.585-1.547 35.385 13.658-.056 4.301-5.14 10.725-9.232 13-10.42 4.742-67.65 5.519-80.628 3.713.662-8.004-.175-16.856-3.32-18.609Z"/><path fill="#f7bc7a" fill-rule="evenodd" d="M535.464 678.04c-1.626.377-9.633 2.675-15.438 2.752a59.702 59.702 0 0 1-8.851-3.072c-4.952 1.765-11.192 3.91-12.907 4.426-2.531.764-6.717 1.397-8.541-.179a49.431 49.431 0 0 1 6.139-8.292c-2.593 1.127-10.367 3.54-13.168 4.5-2.323.276-4.152-1.703-2.457-3.872 2.542-2.097 8.934-6.095 11.494-8.104a105.856 105.856 0 0 1 19.595-7.215c16.23 3.233 18.083 4.658 22.887 5.597l4.185-.853c1.805 3.758 2.026 8.901 1.785 14.384-1.339-.044-2.22-.017-4.723-.072Z"/><path fill="#ffc07f" fill-rule="evenodd" d="M468.626 459.635c6.896-.446 12.485.037 12.485 1.075 0 1.04-5.59 2.244-12.485 2.69-6.895.445-12.484-.037-12.484-1.077s5.59-2.244 12.484-2.688Z"/><path fill="#ffbc7d" fill-rule="evenodd" d="M521.86 454.368c6.895-.422 12.484.035 12.484 1.022s-5.59 2.13-12.485 2.552c-6.895.424-12.485-.035-12.485-1.021 0-.988 5.59-2.13 12.485-2.553Z"/><path fill="#8694b6" d="M450.498 635.684h6.033v61.747h-6.033z" transform="rotate(-13.161 453.514 666.557)"/><path fill="#cfd0d0" d="M444.014 630.246h3.514v6.383h-3.514z" transform="rotate(-13.158 445.77 633.437)"/><path fill="#8694b6" fill-rule="evenodd" d="m463.476 695.924.365 13.835-6.235-12.459 5.87-1.376z"/><path fill="#f7bc7a" fill-rule="evenodd" d="M418.4 686.73c1.93 1.632 2.896 6.223 5.052 8.404 4.136 6.337 6.52 8.127 10.945 12.545 4.666.896 15.88.275 19.948-2.977.67-1.045 2.721-3.948 3.177-6.04-.256-1.758-1.05-5.836-1.18-6.528 1.855-.258 5.262-.11 7.925-.393 1.073-1.219 1.758-4.112 1.369-6.319-3.07-2.041-9.136-4.856-13.735-7.305.622.102.144.029 1.395.196l-1.206-5.1a14.473 14.473 0 0 0-3.939-1.59c-5.209.377-7.82.47-12.527 2.568a37.795 37.795 0 0 0-4.098-3.165c-4.415.921-12.531 9.928-13.126 15.704Z"/><path fill="#6d5855" fill-rule="evenodd" d="M440.205 672.534c-.704-4.7-1.288-9.137-2.45-14.396-2.682-12.143-28.728-14.957-34.67-.968-1.677 3.95-3.251 11.637-.372 17.111 4.497 8.548 12.812 16.818 22.067 22.776-.767-6.16 2.128-21.514 15.425-24.524Z"/><ellipse cx="255.811" cy="751.617" fill="#747474" rx="52.978" ry="8.212"/><ellipse cx="255.811" cy="749.616" fill="#d9dbe0" rx="52.978" ry="8.212"/><path fill="#cfd0d2" fill-rule="evenodd" d="m261.425 748.738-.542-260.818h-10.685l.542 260.818c.547 2.008 9.66 2.084 10.685 0Z"/><path fill="#e1e3e6" fill-rule="evenodd" d="M202.705 343.998a476.053 476.053 0 0 1 52.97-2.62 506.585 506.585 0 0 1 52.97 2.62l26.08 143.949a696.29 696.29 0 0 1-158.1 0Z"/><path fill="#e6e8e9" fill-rule="evenodd" d="m239.766 341.583 15.909-.203 16.001.224 6.683 150.48-45.282-.01 6.689-150.491z"/><path fill="#d9dbe0" fill-rule="evenodd" d="M202.705 343.998c6.135-.726 7.99-.902 15.797-1.343l-18.215 147.567c-8.526-.647-14.401-1.183-23.662-2.275l26.08-143.949Zm105.94 0c-5.942-.704-8.672-.843-16.193-1.277l18.5 147.526c9.559-.657 14.016-1.18 23.773-2.3Z"/><ellipse cx="255.675" cy="344.019" fill="#cfd0d2" rx="52.977" ry="3.141"/><path fill="#fcc076" fill-rule="evenodd" d="M754.315 591.968c-3.996 23.414-6.618 41.48-7.793 63.2 5.123 19.066 28.648 21.357 37.528 3.223 7.883-17.472 13.61-37.227 18.028-57.317-13.781-.007-39.351-2.265-47.763-9.106Z"/><path fill="#87adc4" fill-rule="evenodd" d="M752.169 589.492c5.337 10.035 43.611 12.247 55.453 11.425 4.422-18.346 7.805-32.72 11.139-53.941 7.31-52.881-15.261-105.3-20.365-117.465-4.858 2.94-14.743 17.412-18.864 31.588-14.656 50.416-21.194 91.693-27.363 128.393Z"/><path fill="#f6fbff" fill-rule="evenodd" d="M807.283 603.735c1.148-4.093 1.465-8.775 3.233-14.39-17.186.86-40.388-4.921-55.9-14.627-1.35 6.13-2.495 11.73-3.4 16.603 13.94 10.426 43.144 16.31 56.067 12.414Z"/><path fill="url(#e)" fill-rule="evenodd" d="M733.397 312.703c4.788-13.044 3.044-33.282-2.812-51.774 16.516-6.715 24.927-20.413 32.387-40.478 6.624 12.702 53.69 45.165 97.506 64.303.027 29.867-9.23 50.895-19.462 70.569 1.163 8.214 39.988.566 61.518-23.562 17.264-19.346 21.582-42.802 17.702-60.898-3.525-16.435-14.53-27.773-29.965-27.79-1.091-12.9-4.814-29.47-29.722-54.557-20.439-20.584-48.14-29.158-65.022-27.07-10.616 1.312-25.413 9.745-34.779 18.836-7.91-2.061-13.408-2.825-18.084-1.901-27.106 16.008-34.764 62.77-27.148 86.42q2.086-.288 4.042-.669c4.696 10.996 12.953 34.303 13.84 48.57Z"/><path fill="#9dc2d9" fill-rule="evenodd" d="M843.882 649.985a1447.135 1447.135 0 0 0-15.85-40.048c-17.115-14.208-34.531-32.49-39.09-55.457-1.386-21.958 2.777-105.883 8.843-124.745 3.614-3.604 7.434-6.685 17.224-11.015 23.344-10.326 53.325-16.167 80.621-16.153 18.234.01 47.012 6.513 59.509 20.955 17.502 77.085 26.318 143.653 34.837 219.29 2.72 7.032 6.733 15.436 11.251 24.333H849.342a155.93 155.93 0 0 0-5.46-17.16Z"/><path fill="#86adc3" fill-rule="evenodd" d="M809.601 592.638c30.835 5.062 95.376-6.921 122.025-18.083-1.56 6.292-7.313 14.446-12.747 17.174-20.762 9.718-60.256 16.442-91.022 17.757-4.245-3.499-14.602-12.637-18.256-16.848Z"/><path fill="url(#f)" fill-rule="evenodd" d="M816.884 417.657c-4.095 31.59 14.744 83.499 29.18 90.563 10.426-8.842 41.786-69.537 42.122-105.756-5.653.058-14.955.723-20.225.807l-18.788-62.34-30.08 21.54 9.396 49.854c-4.962 2.37-7.783 3.547-11.605 5.332Z"/><path fill="url(#g)" fill-rule="evenodd" d="M872.727 283.009c-6.646-4.195-19.255-20.984-21.946-25.933-40.898-6.845-77.91-22.411-89.095-41.66-8.408 20.506-15.43 36.606-32.218 45.667.609 9.48 4.683 24.161 5.136 33.38-2.538 12.307-4.424 20.45-4.53 30.262 9.572 31.44 46.461 61.363 71.427 68.3 41.375-13.528 72.682-58.015 71.226-110.016Z"/><path fill="#f5a226" fill-rule="evenodd" d="M726.694 253.8a1.23 1.23 0 0 0 1.055-1.236c-.688-21.392 8.913-54.25 21.178-65.121.268-.24.343-1.392-1.446-1.807a3.45 3.45 0 0 0-2.337.592c-13.925 12.344-20.517 45.94-19.858 66.44a1.2 1.2 0 0 0 1.27 1.144l.138-.012Zm35.802-41.588c.146-.145-1.302-3.113-1.947-6.557a46.93 46.93 0 0 1-.596-10.138 34.307 34.307 0 0 1 1.846-8.838 1.782 1.782 0 0 0-1.646-2.1 2.244 2.244 0 0 0-2.62 1.32 36.436 36.436 0 0 0-1.071 9.438 52.954 52.954 0 0 0 1.86 11.27c.99 3.446 2.522 7.184 4.174 5.605Zm135.441 56.283c-7.809-13.987-6.006-13.834-15.398-26.493a384.81 384.81 0 0 0-26.079-31.53c-12.913-14.018-31.424-33.26-48.672-41.532-1.073-.509-4.626-2.425-6.447-.422-.796.882-.111 2.322.968 2.834 18.503 8.883 32.683 21.46 50.4 39.978 22.783 23.81 31.298 38.948 43.76 58.85 1.362 2.445 2.824.74 1.468-1.686Zm-11.02 10.067a1.104 1.104 0 0 1-.929-.193c-31.744-24.65-84.428-62.83-106.935-96.182-.834-1.235-2.197-3.988-.245-5.528.939-.742 1.985-.483 2.753.634 25.157 39.002 69.044 70.782 105.773 99.45a1.017 1.017 0 0 1 .155 1.46 1.103 1.103 0 0 1-.572.36Z"/><path fill="#ffcd86" fill-rule="evenodd" d="M862.766 290.378c1.483 7.272 4.62 8.561 6.315 8.962 6.82-.17 12.48-10.34 13.466-17.705 1.373-10.215-5.64-16.086-12.151-14.383-9.822 2.568-9.103 15.861-7.63 23.126Z"/><path fill="#fefefe" fill-rule="evenodd" d="M797.078 287.826c6.61 2.607 21.817-.547 28.123-4.1 3.552-2.003 6.433-4.181 7.308-5.379-3.464-6.025-9.108-5.374-16.084-6.825-5.838-1.221-14.948-.717-18.73 7.455a14.143 14.143 0 0 0-.617 8.85Z"/><path fill="url(#b)" fill-rule="evenodd" d="M818.852 286.216a3.864 3.864 0 0 0 1.65-2.047 11.09 11.09 0 0 0-3.051-10.85c-4.906-1.35-10.928-.722-14.986 2.615-1.647 1.182-1.603 5.21-.873 7.14a10.764 10.764 0 0 0 4.353 5.564c3.344-.003 10.97-1.517 12.907-2.422Z"/><path fill="#fefefe" fill-rule="evenodd" d="M769.043 292.16c-2.482 3.213-8.217 4.91-12.848 6.293-4.61 1.378-11.891 1.844-17.289-.262-.262-4.344.75-12.733 7.089-15.432 6.347-2.696 16.963-.494 23.048 9.401Z"/><path fill="url(#h)" fill-rule="evenodd" d="M747.011 299.574c-3.862-.353-6.918-8.024-3.107-12.498 2.527-2.967 7.451-3.661 11.658-2.295 3.662 1.19 5.888 7.835 4.594 11.21-.958 2.503-9.044 3.959-13.145 3.583Z"/><path fill="#a26b49" fill-rule="evenodd" d="M760.403 264.021c-3.494-3.515-9.791-2.465-13.784-.367a18.723 18.723 0 0 0-10.06 15.127 46.921 46.921 0 0 1 23.843-14.76Zm59.392-5.71c-1.564-2.075-5.78-4.563-7.63-5.38a31.521 31.521 0 0 0-9.131-2.428 24.033 24.033 0 0 0-9.526.785 13.468 13.468 0 0 0-7.823 5.674c9.07-2.385 24.097-1.557 34.11 1.35Z"/><path fill="#ffbb73" fill-rule="evenodd" d="M833.94 305.78c5.85-1.899 9.766-5.238 9.281-8.34-.604-3.867-7.816-5.9-16.114-4.543a31.596 31.596 0 0 0-4.64 1.117c-5.85 1.9-9.767 5.237-9.283 8.339.605 3.867 7.817 5.903 16.111 4.544a31.523 31.523 0 0 0 4.645-1.116ZM741.634 321.425a20.942 20.942 0 0 0 2.662.204c6.394.086 11.814-2.656 12.108-6.12.254-2.964-3.33-5.497-8.38-6.216a20.84 20.84 0 0 0-2.658-.202c-6.397-.082-11.814 2.66-12.113 6.122-.249 2.966 3.335 5.494 8.381 6.212Z"/><path fill="#e19770" fill-rule="evenodd" d="M810.275 294.491a55.206 55.206 0 0 1 12.965-8.064 62.644 62.644 0 0 1 7.203-2.722 49.49 49.49 0 0 1 14.167-2.347l.05-1.925a52.535 52.535 0 0 0-14.718 2.305 59.407 59.407 0 0 0-7.388 2.843 60.371 60.371 0 0 0-13.543 8.464l1.264 1.446Zm-51.735 7.538c-3.545-.736-9.304-1.686-12.41-1.945a62.375 62.375 0 0 0-9.649-.044l.116 1.936a60.57 60.57 0 0 1 9.337.041c3.02.251 8.703 1.19 12.172 1.91ZM770.053 278.848a34.656 34.656 0 0 1 3.215 8.113c.794 2.914 1.37 6.03 1.906 9.185a35.551 35.551 0 0 1 .55 8.439 8.472 8.472 0 0 1-1.339 4.605c-1.054 1.249-2.655 1.457-4.32 1.673-2.154.28-4.4.57-6.427 2.595a6.542 6.542 0 0 0-1.845 5.435 12.064 12.064 0 0 0 2.657 6.121 14.468 14.468 0 0 0 4.754 3.843 14.956 14.956 0 0 0 9.46 1.486c-.155-.878-.257-1.683-.41-2.56a13.377 13.377 0 0 1-7.82-1.312 11.849 11.849 0 0 1-3.87-3.112 9.402 9.402 0 0 1-2.097-4.724 3.942 3.942 0 0 1 1.067-3.274c1.385-1.383 3.17-1.614 4.883-1.837 2.19-.283 4.294-.559 6.017-2.6 1.075-1.273 1.759-3.377 1.97-6.133a38.219 38.219 0 0 0-.585-9.103c-.54-3.19-1.13-6.36-1.966-9.43a37.325 37.325 0 0 0-3.463-8.731Z"/><path fill="#eb6b5f" fill-rule="evenodd" d="M815.96 333.336c-2.065 14.027-7.71 28.1-20.937 30.53-11.104 2.038-21.693-8.883-26.966-20.082 2.973-.517 4.048-1.904 15.047-4.608 11.212-2.758 21.403-2.62 32.856-5.84Z"/><path fill="#fefefe" fill-rule="evenodd" d="M814.695 334.894c-12.302 8.883-32.316 14.631-44.94 9.745 2.908 3.28 12.295 11.077 20.048 10.2 13.533-1.53 20.66-10.247 24.892-19.945Z"/><path fill="#e29870" fill-rule="evenodd" d="M765.215 346.831a5.697 5.697 0 0 0 2.133-2.629 8.196 8.196 0 0 0 .588-2.53c.156-1.946-1.844-3.94-2.215-1.113a7.518 7.518 0 0 1-1.182 3.727 16.837 16.837 0 0 1-1.217 1.194c-.587.57-1.091 1.183-.637 1.614a2.346 2.346 0 0 0 2.53-.263ZM819.534 334.617a6.717 6.717 0 0 1-4.643-3.76c-.903-1.731.16-4.345 1.605-1.886 1.213 2.065 2.605 3.403 4.645 3.76 2.65.465.385 2.296-1.607 1.886Z"/><path fill="#87adc4" fill-rule="evenodd" d="M982.421 590.983c-15.385-27.497-50.319-97.273-56.22-146.534-1.187-9.922-.12-19.442 4.076-25.042 5.549-7.399 13.952-5.602 21.723.465 27.843 21.733 68.807 109.074 83.63 148.253-11.259 12.072-40.494 24.323-53.209 22.858Z"/><path fill="#f6fbff" fill-rule="evenodd" d="M875.107 393.52c2.742 18.148 1.016 39.168-1.778 54.945l31.885 2.504c.038-17.419-.487-32.628-5.533-50.466-7.027-1.406-17.546-5.578-24.574-6.983ZM821.873 407.683a235.02 235.02 0 0 0 1.385 49.61c-6.5 3.776-17.218 9.135-24.246 12.912.824-12.858 2.953-33.436 6.325-47.698 4.304-4.041 12.231-10.783 16.536-14.824Z"/><path fill="#f6fbff" fill-rule="evenodd" d="M822.895 454.757a133.228 133.228 0 0 0 22.968 53.39c-14.463-5.83-26.678-9.577-40-22.788l9.652-25.595 7.38-5.007ZM874.281 442.8c-5.11 22.19-14.553 43.839-28.097 65.323 13.859-8.647 41.079-27.059 53.53-38.875l-16.323-20.266-9.11-6.182Z"/><path fill="#fcc076" fill-rule="evenodd" d="M752.296 675.535c8.509-1.214 23.687-4.149 28.283-12.398 1.219-14.058-19.928-34.654-31.747-31.898-32.648 7.616-69.948 23.985-96.63 30.438l3.689 19.857c25.411-1.773 78.08-3.382 96.405-5.999Z"/><path fill="#cad4d9" fill-rule="evenodd" d="M827.07 404.902a52.588 52.588 0 0 0-5.266 2.817c-.158 2.4-.416 6.237-.463 7.919l7.133-3.31-1.405-7.426Zm38.214-10.673c3.26-.285 6.537-.571 9.832-.692.44 2.779.793 6.66 1.054 9.438l-8.187.329Z"/><path fill="#453b2f" fill-rule="evenodd" d="M833.955 277.984c-4.699-6.136-14.739-9.767-22.255-9.57-8.725.226-16.701 5.277-15.606 16.525 2.28-6.758 9.107-9.46 16.385-10.224a47.512 47.512 0 0 1 21.476 3.269ZM738.725 296.743c3.149-6 8.47-9.66 14.954-10 4.854-.256 11.33 1.45 15.426 3.214-2.565-4.81-10.393-8.66-16.482-8.811-7.591-.187-14.799 4.826-13.898 15.597Z"/><path fill="#cf955c" fill-rule="evenodd" d="m665.043 662.763-9.514.354-41.649.23-20.636 6.24-15.467 8.805c-4.088 3.453-6.376 7.245-4.565 9.255l10.937-3.787 11.639-2.88c-.785 2.075-10.95 5.478-12.77 6.168l-20.928 10.057c-3.703 1.813-2.43 5.293.058 5.32l23.57-5.555 37.895-6.45-2.754 3.265c-2.57 1.748-5.248 3.354-7.718 5.243-3.012 2.308-2.785 4.464-1.963 6.554l33.739-11.988 19.502-13.206 4.455-2.812Z"/><path fill="#fcc076" fill-rule="evenodd" d="m670.642 657.36-15.377 3.385-41.649.23-20.636 6.24-15.467 8.806c-4.088 3.453-6.376 7.245-4.565 9.255l10.938-3.788 11.638-2.879c-.784 2.074-10.95 5.478-12.769 6.168l-20.93 10.056c-3.701 1.814-2.429 5.294.06 5.321l23.57-5.556 37.894-6.448-2.754 3.263c-2.57 1.749-5.248 3.354-7.718 5.244-3.012 2.308-2.785 4.464-1.963 6.554l33.74-11.988 14.773-9.963 18.143-.981Z"/><path fill="#f6fbff" fill-rule="evenodd" d="M983.38 592.822a580.556 580.556 0 0 1-7.334-13.57c17.068-2.197 40.659-13.447 54.207-25.747 2.414 5.795 4.532 11.103 6.286 15.739-11.873 12.73-39.751 25.123-53.16 23.578Z"/><path fill="#c1c1c1" fill-rule="evenodd" d="M647.855 579.347c30.178 11.4 67.545 29.967 83.147 50.533l-9.24 2.09c-25.463-11.331-41.218-19.328-66.682-30.66-2.38-5.037-4.845-14.592-7.225-21.963Z"/><path fill="#c1c1c1" fill-rule="evenodd" d="M877.952 597.299 736 629.676l-9.898-1.292c2.925-8.25 21.675-20.174 41.322-27.518 29.206-10.914 91.365-20.173 102.367-26.644 2.313 6.26 6.196 13.917 8.162 23.077Z"/><path fill="url(#i)" fill-rule="evenodd" d="M639.813 584.376c31.247 8.022 70.328 24.118 88.092 42.848l-8.955 3.093c-26.553-8.47-66.623-18.542-93.176-27.01 3.45-7.921 5.943-13.302 14.04-18.93Z"/><path fill="#eaeaea" fill-rule="evenodd" d="M890.827 609.267 738.46 628.356l-10.411-1.754c16.076-14.963 53.468-25.642 76.243-30.594 26.817-5.829 61.421-9.443 78.615-10.681Z"/><path fill="#c1c1c1" fill-rule="evenodd" d="m892.899 604.736-4.415.076-5.569-19.469 9.984 19.393z"/><path fill="#7d312c" fill-rule="evenodd" d="M737.826 628.275c48.691-19.252 102.892-26.408 158.4-25.859l57.037 123.214-2.35 3.6c-34.46-8.523-95.23 5.83-120.166 14.865ZM720.437 630.093c-37.492-22.417-80.966-30.23-104.683-29.647l-1.12 2.823c40.196 37.684 88.005 77.677 124.965 115.057 20.992-.009 49.399 7.899 72.059 22.813-19.397-24.442-58.655-74.452-91.221-111.046Z"/><path fill="#b53c2e" fill-rule="evenodd" d="M719.294 632.902c-37.492-22.418-80.964-30.233-104.682-29.648 40.317 38.198 86.347 79.969 123.845 117.88 10.91-.004 23.826 2.13 36.895 6.275a142.059 142.059 0 0 1 35.103 16.228c-19.396-24.443-58.595-74.142-91.16-110.735Z"/><path fill="#7d312c" fill-rule="evenodd" d="m713.95 629.85 93.837 113.656c8.132 4.418 16.174 2.859 18.753.495l-91.734-113.478c-6.959.69-14.37 2.342-20.856-.672Z"/><path fill="#7d312c" fill-rule="evenodd" d="m721.98 629.89 88.473 114.766c8.132 4.417 18.084 2.397 20.664.033l-91.386-117.11c-5.581 2.14-11.317 3.36-17.75 2.31Z"/><path fill="#c1c1c1" fill-rule="evenodd" d="M633.577 589.79c6.554 1.023 21.074 4.694 28.819 8.296-15.136-3.137-25.325-4.692-31.591-4.683a25.85 25.85 0 0 1 2.772-3.613ZM884.919 592.147c-8.126.402-40.754 3.637-48.45 5.459 17.096-.906 43.404-1.863 49.732-1.069-.406-1.329-.92-3.197-1.282-4.39Z"/><path fill="#4e1e18" fill-rule="evenodd" d="M739.34 627.711c-2.422-1.34-6.352-2.11-11.335-2.503-5.269-.416-11.194.935-13.331 2.205 3.846 6.105 19.854 6.842 24.666.298Z"/><path fill="#b53c2e" fill-rule="evenodd" d="M741.259 630.107c48.954-17.406 96.894-25.025 152.402-24.476l57.236 123.61c-42.504-1.503-79.245 4.333-120.009 15.52Z"/><path fill="#fcc076" fill-rule="evenodd" d="M1010.195 631.786c-7.102-12.003-14.576-26.13-21.01-38.933 13.795-2.385 33.61-11.33 44.405-20.774 9.858 24.544 20.097 55.518 20.133 73.331.059 28.49-30.821 7.855-43.528-13.624Z"/><path fill="#fcc076" fill-rule="evenodd" d="M941.704 644.95c22.508-2.115 72.092-21.947 80.406-22.23 9.287-.317 28.298 19.488 29.13 32.82.255 4.09-12.408 12.207-16.755 13.119-25.993 5.455-58.66 5.788-92.071 4.083 3.02-3.842.934-16.718-.71-27.793Z"/><path fill="#fcc076" fill-rule="evenodd" d="m950.793 672.245-33.62 12.074-36.28-12.514c-5.611-1.663-7.197-7.621-6.265-10.43a176.66 176.66 0 0 0 23.214-2.012l-.385-1.375-29.365-.684c-4.506-.191-6.342-6.084-2.016-7.467l33.626-4.265 15.62-1.76-5.368-11.65c4.077.344 11.654 1.19 16.318 1.965l23.453 15.497Z"/><path fill="#4e1e18" fill-rule="evenodd" d="M1221.267 753.735a584.481 584.481 0 0 0-60.095 2.102c-30.6 2.63-66.615 4.515-86.912 2.595l-98.665-58.01a1.81 1.81 0 0 1-.034-2.789l123.872-12.208a110.6 110.6 0 0 1 14.16 2.744l112.346 40.05c2.414 3.423 2.816 12.276 1.171 18.579-.958 3.67-3.102 7.15-5.843 6.937Z"/><path fill="#7a5d58" fill-rule="evenodd" d="M1220.796 751.115c-18.823.054-37.842.19-58.686 1.971-30.602 2.615-66.615 4.514-86.912 2.594l-99.68-58.056 124.852-14.95a110.595 110.595 0 0 1 14.16 2.742l108.845 41.927c1.611 2.75 2.248 6.876 2.174 11.038a30.287 30.287 0 0 1-1.489 9.602c-1 2.701-2.213 3.096-3.264 3.132Z"/><path fill="#c1c1c1" fill-rule="evenodd" d="m1078.651 721.377-92.222-43.023.196 20.505 91.895 51.78.131-29.262z"/><path fill="#fefefe" fill-rule="evenodd" d="M1218.015 729.892c-17.88-7.195-43.324-8.309-67.707-9.273-28.611-1.13-58.9.704-71.758.685l-.16 29.29c45.419 1.714 98.436-6.745 138.862-3.748 1.384-3.106 2.594-12.156.764-16.954Z"/><path fill="#e6e7e7" fill-rule="evenodd" d="m1212.506 726.562-99.322-40.069c-14.034-5.226-19.166-5.041-36.768-5.55-24.506-.709-60.291 1.528-87.82-3.145l91.954 42.936c11.953 2.933 25.881 2.58 44.076 2.585 31.22.01 55.265-5.39 87.88 3.243Z"/><path fill="#4e1e18" fill-rule="evenodd" d="m1225.066 730.261-.874-2.655-111.746-40.873c-15.553-5.791-21.24-5.589-40.746-6.15-26.58-.767-66.37-1.946-96.132-6.743-.638-.102-1.094 1.901-.051 2.542l100.318 48.538c13.378 2.463 28.618 2.76 49.044 2.497 20.68-.266 38.781-2.144 58.132-1.93a196.864 196.864 0 0 1 42.055 4.774Z"/><path fill="#7a5d58" fill-rule="evenodd" d="m1224.885 727.861-4.102-1.502-108.337-42.879c-15.553-5.791-21.239-5.586-40.746-6.15-27.157-.785-65.674 1.666-96.183-3.513l100.693 47.538c13.114 2.197 29.9 2.885 48.48 2.623 25.016-.351 47.008-3.013 70.692-1.244a167.924 167.924 0 0 1 29.503 5.127Z"/></g></svg>